<?xml version="1.0" standalone="no"?>
<!DOCTYPE svg PUBLIC "-//W3C//DTD SVG 20010904//EN"
 "http://www.w3.org/TR/2001/REC-SVG-20010904/DTD/svg10.dtd">
<svg version="1.0" xmlns="http://www.w3.org/2000/svg"
 width="1280.000000pt" height="1280.000000pt" viewBox="0 0 1280.000000 1280.000000"
 preserveAspectRatio="xMidYMid meet">
<metadata>
Created by potrace 1.14, written by Peter Selinger 2001-2017
</metadata>
<g transform="translate(0.000000,1280.000000) scale(0.100000,-0.100000)"
fill="#000000" stroke="none">
<path d="M3034 11165 c20 -51 20 -51 4 -38 -27 22 -18 -102 11 -153 22 -39 22
-42 7 -73 -9 -17 -19 -31 -22 -31 -3 0 -3 4 0 8 3 5 0 9 -7 9 -7 0 -13 -12
-14 -25 -1 -19 1 -22 9 -11 10 14 9 11 -14 -53 -5 -16 -13 -26 -18 -23 -4 2
-7 -8 -7 -23 1 -15 -7 -63 -17 -107 -44 -199 -27 -617 40 -1005 41 -236 105
-423 230 -667 53 -106 67 -140 53 -132 -42 22 -121 167 -159 292 -14 46 -24
49 -15 5 5 -26 4 -30 -5 -18 -9 12 -11 9 -6 -15 6 -37 46 -128 53 -122 2 3 -1
15 -7 27 -6 12 -10 24 -7 26 2 3 17 -25 33 -62 15 -36 45 -91 66 -120 l37 -54
-43 -93 c-100 -209 -99 -238 2 -107 132 174 127 164 113 213 -7 23 -37 85 -67
138 -168 300 -271 694 -304 1164 -30 425 12 659 130 720 95 49 184 -17 351
-262 45 -65 92 -130 105 -144 21 -22 41 -75 59 -159 2 -8 11 -37 19 -65 9 -27
16 -51 16 -53 0 -14 -88 73 -122 120 -39 54 -43 57 -46 34 -4 -31 23 -168 48
-246 70 -215 144 -307 288 -357 43 -15 60 -27 90 -68 19 -27 56 -72 81 -98 25
-27 47 -52 49 -57 2 -5 -16 -3 -40 4 -66 20 -108 26 -108 17 0 -5 18 -31 40
-58 l40 -50 -73 19 c-85 22 -233 91 -315 147 -83 56 -149 133 -193 226 -21 44
-39 76 -39 70 0 -18 28 -102 45 -135 26 -50 12 -46 -39 12 -51 57 -55 52 -27
-37 39 -128 148 -324 210 -379 36 -32 23 -39 -24 -13 -25 14 -45 21 -45 16 0
-6 19 -45 42 -87 57 -104 173 -224 256 -266 l63 -32 -41 -33 c-64 -51 -160
-178 -197 -261 -19 -41 -46 -99 -60 -128 -14 -29 -23 -55 -20 -59 8 -7 66 30
142 92 31 26 52 38 47 28 -5 -10 -24 -61 -41 -113 -68 -204 -91 -244 -176
-307 l-70 -52 -8 29 c-4 16 -11 69 -15 117 l-7 88 -28 -146 c-27 -137 -31
-149 -63 -180 -18 -18 -36 -30 -39 -27 -3 3 -1 25 4 49 6 24 10 82 9 129 0 47
-3 74 -5 60 -20 -114 -78 -300 -93 -300 -4 0 -10 -21 -14 -46 -3 -25 -17 -69
-32 -97 l-25 -52 88 86 c48 48 111 101 138 120 147 97 263 196 475 404 392
385 413 399 694 464 89 21 188 110 278 251 62 96 68 102 158 156 67 39 180
146 180 170 0 10 -7 10 -32 2 -57 -17 -191 -38 -248 -37 -195 1 -301 76 -462
324 -46 72 -121 175 -165 230 -84 104 -364 385 -383 385 -20 0 -6 -35 18 -45
23 -10 28 -20 13 -29 -10 -7 -72 50 -63 58 3 3 -2 6 -11 6 -9 0 -17 7 -17 15
0 8 -4 15 -8 15 -11 0 -102 90 -137 136 -16 21 -35 45 -43 54 -7 8 -73 96
-146 195 -73 99 -168 217 -210 262 -77 81 -176 208 -176 224 0 5 -5 9 -11 9
-6 0 -8 -7 -5 -15z m692 -907 c140 -146 249 -303 365 -525 51 -98 50 -109 -10
-79 -37 20 -215 207 -243 257 -12 21 -26 39 -31 39 -14 0 2 -88 28 -150 13
-30 19 -56 15 -58 -5 -2 -39 11 -75 28 -99 47 -160 142 -209 327 -24 90 -22
119 5 87 7 -9 32 -29 56 -46 32 -21 51 -45 68 -84 13 -30 26 -54 28 -54 2 0
-6 30 -19 68 -12 37 -30 105 -39 151 -10 47 -19 91 -22 98 -12 30 18 9 83 -59z
m191 -84 c-3 -3 -12 -4 -19 -1 -8 3 -5 6 6 6 11 1 17 -2 13 -5z m-3 -28 c-3
-8 7 -25 21 -39 18 -16 23 -27 16 -31 -6 -4 -11 0 -11 9 0 9 -4 14 -8 11 -12
-7 -36 39 -28 53 10 16 16 14 10 -3z m30 -12 c3 -8 2 -12 -4 -9 -6 3 -10 10
-10 16 0 14 7 11 14 -7z m72 -63 c21 -25 32 -41 24 -36 -8 5 -21 17 -28 27 -7
10 -20 18 -28 18 -8 0 -12 5 -9 10 4 6 1 19 -6 28 -19 25 3 3 47 -47z m-17
-61 c0 -8 -4 -5 -9 8 -5 12 -14 22 -20 22 -5 0 -10 8 -10 18 0 14 4 12 20 -8
11 -14 19 -32 19 -40z m71 0 c0 -5 -5 -10 -11 -10 -5 0 -7 5 -4 10 3 6 8 10
11 10 2 0 4 -4 4 -10z m-29 -38 c-7 -2 -18 1 -23 6 -8 8 -4 9 13 5 13 -4 18
-8 10 -11z m69 -9 c14 -15 20 -24 13 -20 -6 4 -19 0 -28 -9 -15 -15 -15 -14
-9 11 5 18 2 30 -7 36 -8 5 -9 9 -4 9 6 0 21 -12 35 -27z m15 -43 c3 -5 1 -10
-4 -10 -6 0 -11 5 -11 10 0 6 2 10 4 10 3 0 8 -4 11 -10z m45 -37 c0 -7 -4
-13 -10 -13 -5 0 -7 6 -4 14 3 8 1 17 -5 21 -6 3 -11 11 -11 18 0 15 29 -25
30 -40z m-227 -133 c63 -78 122 -124 186 -147 44 -15 53 -24 92 -91 46 -77 79
-115 192 -218 82 -75 118 -145 120 -233 2 -46 -3 -66 -19 -88 -23 -31 -136
-104 -165 -106 -10 -1 -19 -5 -19 -9 0 -4 -9 -8 -20 -8 -11 0 -20 -4 -20 -10
0 -5 -5 -10 -10 -10 -10 0 -41 -21 -165 -109 -79 -57 -94 -70 -198 -174 -92
-92 -132 -122 -89 -66 11 13 29 44 42 69 12 25 40 71 61 103 22 31 37 57 34
57 -11 0 -66 -66 -92 -110 -50 -84 -211 -295 -219 -287 -7 7 78 244 108 298
43 82 122 172 203 231 77 56 64 58 -19 3 -29 -19 -79 -63 -112 -97 -115 -122
-244 -248 -254 -248 -13 0 29 96 82 185 55 93 203 240 285 283 68 36 183 67
283 78 97 10 108 23 21 24 -89 0 -197 -28 -294 -76 l-67 -34 -77 35 c-42 19
-101 56 -131 82 -50 43 -127 136 -154 188 -11 19 -10 19 13 2 54 -38 146 -80
220 -98 78 -20 78 -20 226 0 157 21 222 29 263 31 23 1 23 2 5 10 -32 14 -152
11 -250 -5 -136 -22 -202 -20 -261 10 -80 41 -175 125 -236 210 -54 76 -128
212 -142 265 -7 23 -5 22 19 -8 15 -17 63 -60 108 -95 159 -122 315 -199 483
-237 54 -13 108 -27 119 -32 11 -6 -15 22 -57 62 -43 39 -78 76 -78 80 0 18
212 -79 267 -121 31 -24 79 -61 107 -82 51 -40 86 -61 86 -53 0 2 -72 66 -160
141 -274 234 -356 332 -410 490 -26 75 -25 77 10 24 16 -24 53 -73 83 -109z
m258 103 c13 -16 12 -17 -3 -4 -10 7 -18 15 -18 17 0 8 8 3 21 -13z m-6 -63
c3 -5 1 -10 -4 -10 -6 0 -11 5 -11 10 0 6 2 10 4 10 3 0 8 -4 11 -10z m45 -85
c0 -5 -5 -3 -10 5 -5 8 -10 20 -10 25 0 6 5 3 10 -5 5 -8 10 -19 10 -25z m63
5 c10 -16 16 -30 13 -30 -2 0 -14 14 -26 30 -12 17 -18 30 -13 30 5 0 17 -13
26 -30z m93 -141 c8 -8 14 -19 14 -24 0 -14 -49 48 -61 77 -6 15 -15 25 -20
22 -10 -6 -12 9 -2 19 3 4 18 -12 31 -35 14 -24 31 -50 38 -59z m-111 73 c-3
-3 5 -16 17 -29 12 -13 19 -23 15 -23 -8 0 -57 53 -57 62 0 4 7 5 15 1 9 -3
13 -8 10 -11z m49 -78 c3 -8 2 -12 -4 -9 -6 3 -10 10 -10 16 0 14 7 11 14 -7z
m66 -77 c0 -13 -29 12 -42 37 -10 19 -8 18 16 -3 14 -14 26 -29 26 -34z m35
33 c3 -5 1 -10 -4 -10 -6 0 -11 5 -11 10 0 6 2 10 4 10 3 0 8 -4 11 -10z m81
-92 c4 -7 3 -8 -4 -4 -7 4 -12 2 -12 -3 0 -6 -4 -11 -10 -11 -5 0 -7 7 -4 15
7 18 20 19 30 3z m54 -36 l25 -13 -25 6 c-14 4 -31 7 -37 7 -14 1 -17 11 -6
21 4 4 9 4 12 -1 3 -4 17 -13 31 -20z m-1431 -332 c0 -10 -3 -8 -9 5 -12 27
-12 43 0 25 5 -8 9 -22 9 -30z"/>
<path d="M4410 9266 c0 -2 8 -10 18 -17 15 -13 16 -12 3 4 -13 16 -21 21 -21
13z"/>
<path d="M9673 11103 c-23 -32 -73 -92 -111 -134 -91 -100 -199 -237 -327
-412 -67 -93 -135 -172 -194 -228 -50 -47 -93 -83 -96 -81 -3 3 -5 -1 -5 -10
0 -8 -8 -23 -19 -32 -18 -16 -18 -16 -15 14 l4 31 -31 -21 c-47 -34 -217 -207
-296 -302 -40 -47 -132 -173 -204 -280 -72 -106 -149 -214 -170 -239 -22 -26
-39 -50 -39 -55 0 -15 99 89 127 133 15 24 31 43 35 43 4 0 8 7 8 15 0 8 5 15
10 15 6 0 10 -9 10 -21 0 -11 -4 -18 -9 -14 -12 7 -33 -29 -23 -40 4 -5 1 -4
-7 0 -11 6 -13 4 -7 -11 4 -10 4 -15 0 -12 -9 10 -47 -29 -51 -53 -4 -29 -22
-60 -23 -39 0 18 -35 -45 -44 -80 -3 -14 3 -7 13 15 11 22 20 37 20 33 2 -14
-31 -88 -38 -88 -14 0 -29 -46 -21 -60 7 -11 11 -10 25 3 22 22 32 22 13 0 -9
-10 -13 -24 -10 -32 5 -15 70 -103 82 -111 3 -3 12 -14 18 -25 17 -29 15 1 -3
50 -16 46 -20 115 -5 115 10 0 117 212 122 243 3 21 20 25 27 6 2 -7 -1 -9 -8
-5 -7 5 -11 -5 -11 -28 0 -28 -4 -36 -17 -36 -14 0 -15 -2 -4 -9 8 -5 10 -14
6 -21 -5 -9 -4 -11 3 -6 16 10 15 -17 -3 -84 -17 -64 -18 -70 -7 -70 5 0 17
18 27 40 17 37 119 130 144 130 6 0 11 4 11 9 0 5 24 20 53 34 77 38 177 76
177 67 0 -15 -42 -60 -91 -95 -27 -21 -48 -39 -45 -42 10 -10 226 50 314 88
127 54 278 154 362 239 73 74 74 73 22 -42 -63 -139 -151 -256 -254 -334 -112
-87 -173 -99 -353 -69 -96 16 -214 18 -255 5 -20 -6 -16 -8 23 -9 49 -1 121
-10 286 -37 138 -23 237 -2 375 78 27 16 50 27 52 25 9 -9 -70 -109 -134 -169
-70 -66 -177 -128 -221 -128 -12 0 -47 13 -79 29 -84 42 -186 70 -274 74 -43
2 -78 0 -78 -3 0 -4 48 -15 108 -24 120 -20 220 -51 286 -90 64 -37 160 -129
211 -200 44 -63 140 -245 132 -252 -9 -9 -99 74 -171 157 -85 99 -165 171
-228 206 -24 13 -32 16 -18 7 14 -10 64 -57 111 -104 69 -69 95 -105 128 -171
44 -90 113 -279 102 -279 -10 0 -81 87 -81 99 0 6 -4 11 -8 11 -4 0 -25 25
-47 56 -86 120 -134 181 -174 217 -45 42 -55 36 -16 -9 14 -16 43 -56 65 -89
21 -33 43 -64 47 -70 5 -5 19 -28 32 -50 22 -37 19 -35 -41 25 -72 72 -200
187 -232 210 -24 16 -139 110 -146 119 -17 20 -160 141 -160 135 0 -4 26 -41
57 -83 58 -78 109 -131 439 -451 354 -344 377 -364 554 -492 58 -42 134 -105
169 -139 51 -52 60 -58 47 -32 -9 18 -21 56 -27 85 -6 29 -15 58 -19 63 -12
16 -47 135 -61 205 -7 36 -17 70 -21 75 -10 10 -3 -146 8 -199 l6 -29 -36 28
c-41 31 -49 55 -73 200 -22 137 -25 142 -34 50 -4 -45 -11 -95 -16 -113 l-8
-32 -65 46 c-78 54 -101 94 -172 298 l-48 140 38 -35 c48 -45 142 -119 152
-119 5 0 -5 27 -21 60 -16 33 -29 65 -29 71 0 21 -54 126 -95 184 -24 33 -70
86 -104 118 -33 32 -61 60 -61 62 0 2 20 13 44 25 68 32 131 85 191 158 52 62
131 199 121 209 -2 2 -22 -7 -45 -21 -22 -14 -43 -26 -46 -26 -3 0 16 28 44
61 81 100 201 354 201 425 0 7 -21 -9 -46 -36 -49 -52 -75 -67 -49 -27 16 25
55 133 55 151 0 6 -19 -26 -42 -72 -49 -100 -107 -166 -196 -226 -117 -77
-213 -120 -362 -161 l-25 -7 26 28 c32 35 63 83 58 89 -2 2 -33 -3 -69 -10
-36 -8 -69 -14 -74 -15 -5 0 14 23 42 52 28 28 68 75 89 103 33 46 47 55 113
80 125 47 195 131 254 310 27 80 56 225 56 274 l-1 26 -22 -30 c-34 -46 -119
-135 -130 -135 -5 0 -6 8 -2 18 4 9 18 62 32 117 16 65 33 109 48 125 13 14
60 79 105 145 181 265 253 320 350 270 105 -54 148 -240 137 -590 -16 -493
-111 -901 -298 -1270 -49 -97 -89 -185 -89 -195 0 -10 39 -70 88 -133 48 -63
93 -123 100 -134 12 -16 12 -16 8 7 -2 14 -21 90 -41 169 -41 160 -42 152 20
246 37 56 73 155 80 221 2 22 18 96 35 165 91 366 137 763 127 1078 -7 218
-27 319 -92 474 -5 12 -2 17 10 17 10 0 15 6 12 13 -30 82 -31 86 -17 114 8
15 16 32 19 37 2 5 -1 6 -8 2 -8 -5 -11 0 -10 16 1 12 1 37 0 53 -2 29 -2 29
-18 10 -15 -20 -15 -20 -10 3 3 12 4 22 3 22 -1 0 -21 -26 -43 -57z m-557
-855 c-8 -40 -21 -101 -30 -135 -15 -66 -12 -84 5 -34 6 17 28 41 52 56 23 15
52 37 65 48 21 20 22 20 22 1 0 -28 -34 -151 -59 -211 -45 -113 -98 -172 -187
-208 -32 -13 -60 -23 -61 -21 -2 2 8 32 21 68 14 36 28 90 31 119 6 51 5 53
-10 34 -9 -11 -18 -31 -21 -45 -23 -117 -75 -226 -146 -304 -56 -64 -320 -298
-326 -291 -4 3 50 124 104 230 11 22 28 35 64 48 27 10 68 32 92 50 52 40 144
148 177 208 l24 44 -39 -45 c-80 -93 -160 -173 -196 -196 -35 -23 -68 -31 -68
-18 0 3 26 50 58 105 31 55 68 119 81 142 36 64 128 195 184 262 54 65 169
177 175 170 2 -2 -3 -36 -12 -77z m-238 -58 c-7 -11 -17 -20 -22 -20 -5 0 -1
9 9 20 10 11 20 20 22 20 2 0 -2 -9 -9 -20z m22 -14 c0 -3 -4 -8 -10 -11 -5
-3 -10 -1 -10 4 0 6 5 11 10 11 6 0 10 -2 10 -4z m-69 -30 c-8 -10 -9 -16 -1
-21 5 -3 13 1 16 9 3 9 10 16 15 16 5 0 2 -12 -7 -26 -15 -22 -19 -23 -26 -10
-12 21 -21 20 -36 -5 -10 -16 -10 -24 -1 -35 13 -16 -2 -19 -18 -3 -7 7 -25
-8 -62 -49 -48 -56 -63 -81 -41 -67 6 3 7 -1 4 -9 -3 -9 -10 -13 -15 -10 -5 3
-19 -5 -31 -17 -13 -12 -17 -19 -11 -15 7 4 21 2 30 -4 16 -10 16 -10 -3 -5
-27 7 -79 -36 -71 -60 4 -9 12 -13 18 -9 8 4 9 3 5 -4 -8 -13 -36 -5 -36 10 0
5 -5 6 -11 3 -6 -4 -8 -14 -5 -22 3 -8 1 -11 -4 -8 -6 3 -10 -1 -10 -9 0 -8
-11 -27 -25 -42 -14 -15 -23 -34 -21 -41 3 -7 1 -13 -3 -13 -5 0 -11 6 -14 13
-2 6 -10 -5 -17 -25 -8 -21 -18 -38 -22 -38 -5 0 -6 -11 -2 -25 4 -16 2 -25
-6 -25 -7 0 -10 7 -6 16 3 8 2 12 -4 9 -5 -3 -7 -19 -3 -35 6 -34 -10 -41 -26
-12 -8 14 0 32 35 82 24 35 48 66 52 70 4 3 22 28 40 55 17 28 44 64 60 80 15
17 32 38 38 47 15 27 218 248 227 248 5 0 4 -6 -2 -14z m-201 -286 c-6 -11
-13 -20 -16 -20 -2 0 0 9 6 20 6 11 13 20 16 20 2 0 0 -9 -6 -20z m-113 -162
c-3 -8 -6 -5 -6 6 -1 11 2 17 5 13 3 -3 4 -12 1 -19z m-19 -43 c-6 -14 -13
-23 -15 -21 -5 5 15 46 22 46 3 0 -1 -11 -7 -25z m-64 -157 c-14 -20 -15 -20
-9 -3 4 11 10 34 14 50 l6 30 3 -27 c2 -15 -4 -38 -14 -50z m-49 52 c3 -5 1
-10 -4 -10 -6 0 -11 5 -11 10 0 6 2 10 4 10 3 0 8 -4 11 -10z m-15 -66 c0 -8
-5 -12 -10 -9 -6 4 -8 11 -5 16 9 14 15 11 15 -7z m-15 -76 c-4 -18 -11 -37
-15 -42 -5 -5 -4 10 2 33 12 48 23 56 13 9z m-45 -62 c0 4 5 3 10 -2 7 -7 2
-31 -15 -75 l-24 -64 1 78 c1 64 3 75 14 66 8 -6 14 -8 14 -3z m-50 -70 c0 -3
-4 -8 -10 -11 -5 -3 -10 -1 -10 4 0 6 5 11 10 11 6 0 10 -2 10 -4z"/>
<path d="M8736 9595 c-11 -8 -15 -15 -9 -15 6 0 16 7 23 15 16 19 11 19 -14 0z"/>
<path d="M9791 11045 c0 -11 4 -29 9 -40 l9 -20 0 20 c0 11 -4 29 -9 40 l-9
20 0 -20z"/>
<path d="M2951 10944 c0 -11 3 -14 6 -6 3 7 2 16 -1 19 -3 4 -6 -2 -5 -13z"/>
<path d="M3035 10951 c-3 -6 -3 -15 0 -21 3 -5 1 -10 -4 -10 -6 0 -11 -4 -11
-10 0 -21 20 -9 26 15 7 28 0 43 -11 26z"/>
<path d="M9811 10934 c0 -11 3 -14 6 -6 3 7 2 16 -1 19 -3 4 -6 -2 -5 -13z"/>
<path d="M9040 10859 c-41 -39 -115 -105 -165 -146 -49 -42 -112 -103 -140
-137 -27 -33 -68 -81 -91 -106 -143 -153 -355 -454 -440 -623 -77 -155 -85
-200 -11 -67 63 115 185 295 247 364 25 28 69 79 98 113 28 34 71 81 95 105
41 43 139 147 248 263 30 33 64 74 74 90 11 17 48 66 84 110 106 132 106 132
1 34z"/>
<path d="M2942 10885 c0 -16 2 -22 5 -12 2 9 2 23 0 30 -3 6 -5 -1 -5 -18z"/>
<path d="M9822 10850 c0 -14 2 -19 5 -12 2 6 2 18 0 25 -3 6 -5 1 -5 -13z"/>
<path d="M2971 10834 c-6 -15 -9 -29 -7 -32 3 -2 10 8 16 23 14 36 7 43 -9 9z"/>
<path d="M9780 10846 c0 -8 4 -17 9 -20 5 -4 7 3 4 14 -6 23 -13 26 -13 6z"/>
<path d="M3776 10773 c15 -21 32 -39 36 -41 4 -2 8 -8 8 -14 0 -5 6 -15 13
-22 6 -7 35 -39 62 -71 28 -33 84 -93 125 -135 132 -133 308 -335 391 -446 24
-33 47 -61 50 -64 11 -9 96 -145 139 -223 23 -43 45 -76 47 -73 18 18 -211
414 -302 525 -11 13 -32 38 -47 56 -16 18 -28 37 -28 43 0 6 -3 12 -7 14 -8 3
-179 199 -218 249 -20 26 -280 239 -291 239 -4 0 6 -17 22 -37z"/>
<path d="M9833 10775 c0 -22 2 -30 4 -17 2 12 2 30 0 40 -3 9 -5 -1 -4 -23z"/>
<path d="M9843 10660 c0 -25 2 -35 4 -22 2 12 2 32 0 45 -2 12 -4 2 -4 -23z"/>
<path d="M8581 10501 c-66 -49 -87 -70 -43 -45 33 19 112 83 102 83 -3 0 -29
-17 -59 -38z"/>
<path d="M8435 10394 c-79 -59 -95 -78 -25 -29 54 37 99 75 90 75 -3 0 -32
-21 -65 -46z"/>
<path d="M8309 10299 l-34 -30 35 23 c19 13 37 24 39 25 2 2 2 5 0 8 -3 2 -21
-9 -40 -26z"/>
<path d="M8249 10253 c-13 -16 -12 -17 4 -4 16 13 21 21 13 21 -2 0 -10 -8
-17 -17z"/>
<path d="M2935 9830 c-3 -5 -1 -10 4 -10 6 0 11 5 11 10 0 6 -2 10 -4 10 -3 0
-8 -4 -11 -10z"/>
<path d="M2940 9754 c0 -19 4 -33 8 -30 8 5 4 66 -4 66 -2 0 -4 -16 -4 -36z"/>
<path d="M2952 9680 c0 -19 2 -27 5 -17 2 9 2 25 0 35 -3 9 -5 1 -5 -18z"/>
<path d="M7581 9661 c-6 -4 23 -35 64 -69 78 -64 100 -70 42 -11 -55 57 -95
86 -106 80z"/>
<path d="M5163 9647 c-34 -19 -116 -97 -109 -104 3 -3 27 12 53 34 27 22 58
46 71 54 39 24 26 39 -15 16z"/>
<path d="M7410 9649 c-14 -4 -63 -8 -110 -9 -65 -2 -77 -4 -50 -10 19 -4 62
-17 95 -29 33 -13 92 -34 130 -47 39 -14 101 -41 139 -60 66 -34 86 -38 71
-15 -6 11 -78 63 -189 137 -48 31 -66 39 -86 33z m10 -45 c33 -15 59 -29 57
-31 -2 -2 -33 10 -68 26 -80 37 -72 40 11 5z m95 -52 c-3 -3 -11 0 -18 7 -9
10 -8 11 6 5 10 -3 15 -9 12 -12z"/>
<path d="M2962 9610 c0 -19 2 -27 5 -17 2 9 2 25 0 35 -3 9 -5 1 -5 -18z"/>
<path d="M5259 9607 c-26 -18 -72 -49 -103 -70 -57 -39 -72 -54 -63 -63 7 -8
112 41 162 76 26 18 49 30 52 27 2 -3 -8 -12 -24 -21 -47 -26 -12 -18 72 16
81 33 83 55 2 24 -36 -14 -39 -14 -23 -1 11 8 27 15 35 15 13 1 12 4 -3 15
-29 22 -56 17 -107 -18z"/>
<path d="M6263 9521 c-87 -15 -51 -21 132 -21 129 0 186 3 179 10 -13 13 -254
22 -311 11z"/>
<path d="M8245 9409 c-4 -6 -5 -12 -2 -15 2 -3 7 2 10 11 7 17 1 20 -8 4z"/>
<path d="M9706 9209 c-3 -18 -4 -34 -2 -36 2 -3 7 10 11 27 4 17 5 34 2 36 -2
3 -7 -10 -11 -27z"/>
<path d="M6360 9063 c-59 -131 -69 -186 -75 -438 -6 -233 5 -235 29 -4 9 84
18 155 21 157 6 6 -4 -150 -16 -258 -10 -96 -12 -176 -3 -167 16 16 34 236 32
392 -3 156 -1 174 18 215 l21 45 12 -30 c17 -41 41 -135 41 -158 0 -11 -4 -15
-11 -11 -26 16 10 -438 36 -465 8 -7 6 25 -10 164 -8 72 -14 164 -14 205 1 64
3 54 15 -70 23 -243 34 -241 29 5 -4 241 -14 303 -66 408 -16 31 -31 57 -34
57 -2 0 -14 -21 -25 -47z"/>
<path d="M8230 8925 c1 -12 39 -59 44 -54 2 2 -7 18 -20 34 -13 17 -24 26 -24
20z"/>
<path d="M9626 8885 c-3 -9 -6 -24 -5 -33 0 -9 5 -4 10 12 9 32 6 48 -5 21z"/>
<path d="M4680 8725 c-19 -7 -28 -14 -20 -14 8 0 29 6 45 14 39 17 21 18 -25
0z"/>
<path d="M8540 8665 c0 -3 109 -114 243 -247 133 -134 251 -259 261 -278 l19
-35 -38 35 c-21 19 -35 29 -31 23 4 -7 -73 27 -171 76 -98 49 -195 94 -216
101 -41 13 -147 20 -147 10 0 -7 135 -222 171 -272 11 -16 17 -28 13 -28 -8 0
-220 142 -261 176 -55 45 -37 11 30 -53 81 -81 298 -226 313 -211 3 3 -29 64
-70 137 -41 72 -70 131 -64 131 13 0 332 -165 368 -190 14 -10 79 -46 145 -80
66 -34 139 -76 163 -92 24 -17 46 -28 48 -25 3 3 -15 36 -39 74 -24 37 -53 82
-63 99 -99 163 -267 333 -536 543 -60 46 -108 87 -108 91 0 4 -7 10 -15 14 -8
3 -15 3 -15 1z"/>
<path d="M4265 8634 c-27 -13 -57 -31 -65 -40 -8 -8 18 1 59 20 40 19 76 37
79 40 13 14 -28 3 -73 -20z"/>
<path d="M4190 8620 c-19 -16 -93 -75 -165 -130 -186 -144 -324 -276 -408
-390 -86 -118 -170 -250 -163 -257 3 -3 31 11 63 30 32 19 101 56 153 82 52
26 119 63 148 81 63 41 347 184 363 184 8 0 7 -6 -3 -17 -8 -10 -30 -45 -48
-78 -18 -33 -44 -79 -57 -102 -26 -47 -27 -53 -12 -53 25 0 249 148 307 204
34 32 61 61 59 63 -2 2 -68 -40 -147 -92 -79 -52 -147 -95 -151 -95 -3 0 21
43 55 95 103 159 126 197 126 206 0 10 -85 4 -141 -11 -67 -18 -399 -190 -444
-230 l-40 -35 19 30 c25 41 75 101 127 155 77 80 370 354 398 372 15 10 20 18
11 17 -8 0 -31 -13 -50 -29z"/>
<path d="M6374 8423 c-2 -186 10 -487 17 -448 16 81 7 525 -10 525 -4 0 -7
-35 -7 -77z"/>
<path d="M6517 8385 c-15 -142 -27 -207 -71 -390 -24 -99 -48 -198 -52 -220
l-7 -40 -9 40 c-5 22 -31 130 -58 240 -27 110 -52 229 -55 265 -4 36 -8 82
-10 103 -2 22 -7 42 -11 45 -3 4 -4 -49 -1 -118 6 -121 25 -228 91 -515 15
-61 31 -175 37 -255 14 -186 27 -229 28 -95 2 133 21 271 70 496 47 215 64
343 59 449 l-3 75 -8 -80z"/>
<path d="M5850 8246 c0 -2 50 -35 111 -72 116 -72 211 -161 248 -232 19 -35
20 -35 21 -11 0 35 -68 138 -116 175 -88 68 -264 162 -264 140z"/>
<path d="M6810 8199 c-52 -28 -116 -66 -141 -85 -50 -36 -114 -122 -125 -166
-9 -38 8 -35 25 5 23 52 139 158 241 219 135 82 128 77 110 77 -8 1 -58 -22
-110 -50z"/>
<path d="M4920 8226 c0 -5 187 -48 335 -76 265 -51 397 -89 514 -150 238 -124
347 -337 367 -720 4 -73 11 -126 15 -118 15 27 27 194 19 263 -31 261 -117
426 -278 537 -69 48 -202 106 -303 133 -135 36 -669 141 -669 131z"/>
<path d="M7819 8226 c-2 -2 -60 -14 -128 -25 -181 -32 -474 -97 -566 -127
-134 -44 -255 -109 -320 -172 -128 -127 -204 -322 -206 -527 -1 -97 15 -215
29 -215 4 0 8 51 8 113 4 271 84 502 218 625 23 22 75 58 115 82 124 72 240
106 631 186 163 33 270 61 239 63 -9 1 -18 -1 -20 -3z"/>
<path d="M4256 8174 c-18 -17 -22 -39 -6 -29 11 7 33 45 26 45 -2 0 -12 -7
-20 -16z"/>
<path d="M8500 8182 c0 -5 12 -19 27 -33 l26 -24 -23 33 c-25 33 -30 38 -30
24z"/>
<path d="M5318 8023 c12 -2 30 -2 40 0 9 3 -1 5 -23 4 -22 0 -30 -2 -17 -4z"/>
<path d="M7393 8023 c15 -2 39 -2 55 0 15 2 2 4 -28 4 -30 0 -43 -2 -27 -4z"/>
<path d="M5258 8013 c6 -2 18 -2 25 0 6 3 1 5 -13 5 -14 0 -19 -2 -12 -5z"/>
<path d="M7498 8013 c7 -3 16 -2 19 1 4 3 -2 6 -13 5 -11 0 -14 -3 -6 -6z"/>
<path d="M5215 8000 c-3 -6 1 -7 9 -4 18 7 21 14 7 14 -6 0 -13 -4 -16 -10z"/>
<path d="M7545 7978 c-165 -22 -297 -85 -391 -188 -47 -51 -33 -50 21 1 57 54
121 92 199 119 86 29 88 25 5 -17 -180 -93 -271 -229 -301 -452 -17 -134 11
-279 67 -334 9 -10 15 -20 13 -23 -3 -2 -21 12 -41 31 -39 38 -67 111 -67 176
0 21 -4 41 -10 44 -6 4 -10 -22 -10 -72 1 -115 25 -161 112 -210 31 -18 50
-21 130 -19 79 2 107 8 187 39 52 20 98 40 104 46 6 6 -26 -4 -69 -21 -63 -24
-99 -31 -179 -35 -117 -6 -134 2 -175 83 -23 45 -25 60 -25 174 1 136 16 211
63 310 68 144 260 270 411 270 92 0 194 -70 234 -160 25 -56 34 -184 18 -262
-19 -88 -74 -192 -135 -254 -30 -29 -51 -54 -47 -54 4 0 18 11 31 25 12 13 27
22 33 18 6 -3 7 -1 4 4 -4 6 0 16 8 23 44 37 118 173 140 257 75 287 -118 505
-385 436 -14 -3 -22 -3 -19 0 13 15 141 34 176 27 41 -10 33 3 -12 17 -17 5
-56 6 -90 1z"/>
<path d="M5113 7974 c-42 -10 -24 -19 29 -16 29 2 71 -1 93 -6 34 -7 26 -8
-45 -8 -67 1 -95 -4 -132 -21 -174 -80 -229 -322 -122 -535 32 -64 109 -168
144 -193 15 -11 8 0 -15 26 -89 98 -135 205 -142 335 -7 115 12 185 70 250 77
87 173 112 294 76 233 -71 377 -290 377 -572 0 -108 -23 -176 -74 -225 -29
-28 -30 -28 -132 -22 -57 3 -123 13 -147 21 -50 18 -62 20 -41 6 8 -6 51 -22
95 -36 66 -21 95 -25 165 -22 91 3 98 7 161 69 39 40 59 98 59 171 0 71 -17
79 -25 12 -13 -103 -45 -167 -98 -196 -12 -6 -8 4 13 33 42 58 60 127 60 228
0 264 -134 478 -350 562 -66 26 -33 23 49 -5 82 -28 148 -68 209 -127 23 -23
42 -37 42 -31 0 21 -129 129 -191 159 -107 52 -271 83 -346 67z"/>
<path d="M6830 7841 c-54 -77 -116 -265 -125 -379 -6 -81 1 -63 45 118 17 69
45 154 62 190 42 85 48 100 43 100 -2 0 -13 -13 -25 -29z"/>
<path d="M5920 7855 c0 -3 12 -28 26 -56 37 -74 113 -333 114 -388 0 -13 3
-22 6 -18 25 24 -32 259 -93 385 -32 64 -53 95 -53 77z"/>
<path d="M4181 7597 c14 -12 41 -35 60 -50 18 -16 29 -26 22 -23 -41 21 -272
50 -393 50 -141 1 -259 -10 -244 -23 5 -4 61 -15 124 -25 125 -19 259 -60 330
-100 55 -31 107 -79 190 -174 34 -39 106 -107 158 -150 52 -42 114 -93 137
-112 23 -19 52 -42 65 -50 12 -8 40 -27 61 -43 56 -39 166 -91 256 -121 143
-46 237 -61 392 -61 135 0 142 0 100 -13 -82 -24 -187 -32 -278 -22 -111 13
-190 36 -326 96 -83 36 -127 50 -177 54 -37 3 -64 2 -60 -2 14 -14 232 -117
300 -141 89 -33 217 -57 297 -57 59 0 184 19 230 35 36 13 -51 -44 -106 -69
-118 -53 -241 -70 -341 -47 -55 13 -47 -6 15 -34 41 -20 68 -25 130 -25 143 0
208 28 454 199 184 127 234 156 244 139 10 -16 -13 -30 -24 -15 -6 9 -10 9
-14 -2 -3 -7 -17 -24 -32 -37 -14 -13 -48 -44 -76 -70 l-50 -46 55 36 c30 20
60 36 67 36 6 0 13 3 15 8 8 19 150 104 213 128 183 68 435 89 630 51 161 -31
327 -100 393 -165 8 -7 28 -20 45 -28 18 -9 47 -28 65 -41 26 -19 31 -21 22
-7 -16 25 -141 124 -157 124 -7 0 -13 4 -13 10 0 14 81 -18 103 -40 10 -11 23
-17 29 -14 7 4 8 2 4 -4 -4 -7 -1 -12 9 -12 9 0 53 -26 98 -58 203 -144 291
-183 424 -190 82 -4 97 -2 147 21 31 14 56 28 56 31 0 3 -44 3 -97 -1 -75 -4
-113 -1 -162 12 -62 16 -227 92 -219 100 2 3 36 -2 74 -10 135 -29 306 -12
459 44 70 25 305 136 305 143 0 2 -30 1 -67 -3 -67 -5 -102 -17 -234 -78 -170
-77 -410 -97 -556 -45 -34 12 -27 12 77 7 178 -9 379 34 560 120 85 40 281
182 429 312 52 46 171 167 171 175 0 11 111 93 166 123 60 32 205 72 318 88
112 16 121 24 40 37 -131 20 -416 1 -544 -38 -19 -5 -37 -10 -40 -10 -3 0 20
23 50 51 59 54 55 54 -28 1 -46 -29 -137 -74 -223 -109 -14 -6 -64 -21 -110
-34 -160 -42 -253 -86 -326 -152 -131 -118 -478 -326 -632 -377 -94 -31 -187
-30 -245 4 -108 63 -188 225 -188 378 1 43 -3 80 -9 83 -14 9 -11 -141 5 -216
8 -37 28 -94 46 -128 25 -51 28 -60 12 -52 -20 10 -80 74 -124 131 -15 19 -28
29 -28 21 0 -21 58 -108 92 -136 35 -30 20 -32 -36 -5 -73 34 -219 78 -297 89
-107 15 -217 0 -352 -47 -62 -22 -120 -43 -131 -47 -12 -5 -7 7 18 40 41 53
70 104 63 111 -2 3 -17 -12 -33 -33 -29 -38 -149 -162 -143 -146 2 4 17 33 33
63 44 83 56 142 54 265 l-1 110 -7 -101 c-9 -129 -39 -218 -99 -297 -143 -189
-341 -144 -845 192 -38 25 -92 67 -120 92 -86 77 -112 89 -326 155 -168 52
-343 135 -381 180 -6 8 -19 14 -28 14 -12 -1 -10 -6 10 -23z m452 -397 c121
-18 117 -16 117 -58 0 -80 79 -196 170 -249 69 -41 178 -73 246 -73 74 0 116
17 155 63 l27 31 78 -36 c44 -20 97 -42 119 -49 65 -21 61 -26 -31 -39 -234
-33 -506 17 -666 123 -65 42 -298 267 -298 286 0 13 -5 13 83 1z m3587 -2 c0
-18 -239 -250 -301 -292 -148 -99 -435 -149 -663 -115 -77 12 -88 21 -39 34
16 3 69 25 120 47 l92 40 27 -31 c14 -17 39 -38 55 -46 44 -23 143 -19 231 11
163 54 255 144 280 274 l13 65 80 11 c109 16 105 15 105 2z m-3267 -60 c54
-28 64 -97 21 -143 -22 -23 -31 -27 -62 -22 -76 12 -109 101 -57 152 26 27 63
32 98 13z m2937 -18 c0 -13 -7 -20 -20 -20 -13 0 -20 7 -20 20 0 13 7 20 20
20 13 0 20 -7 20 -20z m-160 -111 c0 -15 2 -33 3 -41 2 -7 2 -10 0 -6 -2 4
-13 -2 -25 -14 -16 -16 -29 -19 -60 -15 -36 5 -78 30 -78 47 0 4 30 26 68 49
61 37 68 39 80 24 6 -9 12 -29 12 -44z m-2580 -29 c0 -11 -6 -20 -14 -20 -18
0 -29 16 -21 30 11 18 35 11 35 -10z m1417 7 c18 0 29 -5 26 -10 -4 -6 1 -8
12 -3 23 9 57 -2 49 -16 -5 -7 2 -9 20 -4 19 5 28 2 32 -9 3 -8 10 -12 15 -9
5 3 9 1 9 -5 0 -6 8 -8 18 -4 12 4 14 3 6 -6 -8 -8 -25 -6 -70 9 -32 12 -68
23 -79 25 -125 25 -188 34 -230 34 -68 1 -212 -31 -313 -68 -63 -24 -88 -29
-100 -21 -14 9 -14 10 4 5 13 -3 26 1 34 10 7 8 22 15 34 15 12 0 26 4 32 9 8
8 126 43 184 55 14 2 84 2 155 -1 72 -3 144 -5 162 -6z m218 -77 c-3 -5 -1
-10 6 -10 7 0 10 -2 7 -5 -8 -9 -38 6 -32 16 3 5 10 9 15 9 6 0 7 -4 4 -10z
m891 -15 c-8 -8 -18 -15 -22 -15 -3 0 -1 7 6 15 7 8 17 15 22 15 5 0 3 -7 -6
-15z m-836 -15 c8 -5 11 -10 5 -10 -5 0 -17 5 -25 10 -8 5 -10 10 -5 10 6 0
17 -5 25 -10z m-945 -20 c3 -5 1 -10 -4 -10 -6 0 -11 5 -11 10 0 6 2 10 4 10
3 0 8 -4 11 -10z"/>
<path d="M7974 7523 c-46 -76 -89 -135 -128 -177 -24 -25 -38 -46 -30 -46 26
0 119 105 153 173 34 67 38 104 5 50z"/>
<path d="M4780 7530 c0 -28 58 -119 109 -171 68 -70 104 -80 39 -11 -48 51
-128 165 -128 181 0 6 -4 11 -10 11 -5 0 -10 -5 -10 -10z"/>
<path d="M6252 7294 c1 -118 -8 -153 -50 -196 -32 -35 -14 -37 27 -3 43 37 55
83 48 186 -9 136 -25 145 -25 13z"/>
<path d="M6507 7382 c-14 -37 -12 -194 2 -234 13 -40 53 -78 80 -78 13 1 12 4
-5 18 -48 40 -57 69 -63 195 -4 80 -9 114 -14 99z"/>
<path d="M3557 7324 c-5 -5 7 -14 25 -20 30 -11 31 -13 8 -13 -30 -1 -212 -57
-258 -80 -18 -9 -45 -26 -60 -38 l-27 -22 55 -1 55 -1 -47 -18 c-71 -28 -176
-102 -251 -177 -75 -75 -183 -212 -174 -220 3 -3 32 11 64 32 174 111 359 211
371 199 3 -2 -2 -7 -10 -10 -8 -3 -69 -65 -134 -137 -65 -72 -141 -149 -167
-170 -60 -47 -50 -54 64 -44 43 3 79 5 79 2 0 -2 -43 -28 -96 -57 -92 -51
-185 -121 -174 -132 3 -3 46 5 95 18 50 12 110 24 134 28 l43 5 -48 -32 c-59
-40 -95 -79 -198 -214 -84 -111 -177 -212 -196 -212 -7 0 10 20 37 44 27 25
90 102 139 172 139 200 119 188 -41 -24 -47 -62 -108 -130 -136 -151 -47 -38
-86 -58 -95 -48 -2 2 10 30 27 63 74 142 88 174 93 223 3 28 13 65 22 82 29
58 6 41 -36 -25 -23 -36 -43 -66 -45 -66 -2 0 -1 10 1 23 3 17 1 16 -8 -5 -7
-16 -15 -28 -20 -28 -12 0 -10 6 19 63 16 32 27 72 29 104 2 29 8 62 14 73 7
12 9 24 6 27 -9 9 -89 -79 -135 -151 -37 -56 -46 -65 -52 -50 -6 14 -7 11 -7
-11 1 -16 -2 -39 -7 -50 l-8 -20 23 20 c16 14 24 16 27 8 3 -7 9 -13 14 -13 6
0 7 4 4 10 -3 5 0 7 9 4 24 -9 26 -31 6 -57 -33 -42 -90 -170 -90 -202 0 -56
71 -105 152 -105 43 0 209 28 218 37 3 3 -32 2 -77 -2 -46 -4 -83 -5 -83 -2 0
3 35 24 78 47 79 42 114 67 77 54 -11 -4 -25 -11 -32 -16 -7 -6 -17 -8 -23 -6
-13 4 81 119 175 213 82 82 170 132 293 166 96 26 103 37 10 15 -83 -19 -160
-50 -221 -87 -36 -22 -45 -25 -35 -11 46 65 168 140 295 183 52 17 93 33 90
35 -5 6 -430 -87 -474 -103 -15 -6 -16 -5 -5 9 18 22 118 80 289 168 79 41
141 75 140 77 -2 1 -39 -13 -83 -31 -48 -21 -104 -37 -144 -40 l-65 -7 39 23
c33 20 283 201 296 215 14 15 -54 -27 -125 -76 -114 -81 -236 -151 -262 -151
-3 0 38 46 93 102 257 266 279 282 393 276 83 -4 79 11 -6 19 -114 10 -266
-48 -460 -177 -58 -39 -107 -69 -109 -67 -2 2 21 33 52 70 96 116 232 217 350
258 70 25 201 35 264 21 69 -17 60 -6 -17 18 -37 12 -106 25 -153 29 -56 5
-78 10 -65 15 212 80 241 84 323 45 26 -13 81 -57 123 -99 78 -76 83 -65 10
27 -22 28 -62 65 -90 84 -28 18 -49 34 -47 36 6 6 96 -18 143 -38 89 -38 189
-159 178 -216 -3 -15 4 -2 16 30 11 31 24 57 27 57 4 0 8 -36 10 -80 4 -98 23
-176 63 -251 52 -96 64 -103 177 -104 123 0 155 -15 282 -130 170 -153 280
-188 531 -166 228 20 360 71 604 232 157 104 218 134 295 149 59 11 203 12
295 1 66 -8 54 -15 -45 -26 -75 -8 -240 -60 -322 -101 -37 -19 -115 -65 -172
-103 -58 -38 -121 -75 -141 -81 -20 -7 -34 -14 -32 -16 9 -9 97 30 174 77 117
71 236 125 349 156 91 26 112 28 274 27 147 0 188 -4 253 -22 118 -33 237 -84
345 -150 93 -57 180 -97 189 -89 2 3 -15 12 -37 21 -23 9 -82 44 -132 77 -181
122 -358 191 -526 206 -40 3 -75 9 -77 13 -5 9 131 20 245 20 93 0 176 -18
243 -51 23 -12 106 -64 185 -116 240 -158 349 -200 578 -223 182 -18 304 0
406 59 29 17 94 67 143 112 120 109 167 131 278 127 83 -3 87 -2 117 27 66 62
108 183 112 323 2 45 6 82 9 82 4 0 17 -27 29 -60 24 -64 36 -78 25 -31 -12
56 69 167 155 211 42 22 149 54 156 47 3 -3 -11 -14 -30 -26 -42 -26 -125
-115 -155 -166 -17 -30 -7 -23 52 36 40 41 97 87 126 103 75 41 123 39 252
-10 l104 -39 -86 -7 c-84 -6 -205 -33 -214 -48 -3 -4 14 -3 38 2 23 5 81 8
129 5 94 -6 166 -30 266 -88 56 -34 289 -256 278 -266 -3 -3 -58 29 -122 71
-207 135 -357 190 -469 171 l-50 -9 80 -6 c61 -4 89 -11 115 -29 28 -19 350
-339 350 -349 0 -1 -17 5 -37 13 -50 20 -142 76 -223 135 -79 57 -131 90 -110
69 36 -36 221 -170 263 -190 26 -13 47 -27 47 -31 0 -21 -145 10 -213 44 -22
11 -41 17 -44 15 -2 -3 62 -39 144 -81 149 -78 263 -145 263 -158 0 -3 -26 1
-57 9 -86 22 -417 92 -420 89 -2 -2 25 -13 59 -25 106 -37 225 -100 278 -148
28 -25 49 -47 47 -50 -3 -2 -27 10 -53 27 -50 32 -169 74 -239 84 -22 4 1 -6
50 -22 126 -39 209 -86 285 -162 61 -61 190 -214 190 -225 0 -3 -14 2 -31 10
-17 9 -33 14 -35 12 -3 -3 29 -23 71 -46 41 -23 75 -44 75 -47 0 -4 -35 -4
-77 -1 l-78 6 55 -15 c85 -22 181 -28 224 -14 21 6 51 25 67 41 l29 28 -24 63
c-13 35 -41 99 -62 143 -52 107 -52 105 -11 66 l36 -34 -45 92 c-48 100 -56
133 -27 110 29 -23 -21 42 -55 73 -31 28 -47 27 -33 -1 13 -26 24 -99 12 -81
-19 27 -12 4 20 -65 16 -37 29 -71 27 -77 -2 -6 -27 20 -56 57 -55 71 -59 74
-41 28 7 -15 15 -53 19 -84 6 -47 27 -97 88 -215 45 -87 41 -97 -19 -58 -56
35 -116 99 -186 199 -31 44 -74 98 -96 120 l-39 40 23 -35 c13 -19 27 -39 32
-45 4 -5 37 -50 71 -100 35 -49 89 -114 119 -142 31 -29 51 -53 44 -53 -19 0
-148 139 -223 240 -75 102 -130 158 -196 202 -22 16 -36 28 -31 28 24 0 220
-43 236 -52 10 -5 21 -7 24 -4 15 15 -92 98 -212 164 l-60 32 72 -6 c39 -4 84
-4 98 0 26 7 25 7 -27 50 -29 24 -75 70 -103 102 -27 32 -83 94 -124 137 -41
42 -71 77 -67 77 21 0 310 -165 414 -237 32 -23 27 -3 -15 53 -118 156 -237
265 -356 324 l-77 39 47 3 48 3 -44 32 c-42 31 -242 102 -293 104 -22 1 -22 1
5 13 15 7 24 15 21 19 -21 20 -198 -10 -279 -47 -61 -27 -139 -95 -162 -140
l-16 -30 -19 37 c-10 20 -23 37 -28 37 -6 0 -10 -34 -10 -78 0 -135 -28 -249
-81 -328 -44 -65 -52 -69 -145 -66 -108 4 -159 -18 -279 -118 -190 -159 -220
-172 -415 -172 -284 0 -400 36 -670 207 -265 168 -309 182 -540 169 -80 -5
-185 -6 -235 -4 -49 3 -144 5 -210 4 -150 0 -211 -19 -362 -111 -60 -36 -144
-88 -188 -114 -158 -97 -277 -133 -488 -149 -139 -11 -248 0 -322 34 -62 28
-117 74 -108 89 3 7 3 9 -2 5 -4 -4 -42 19 -84 51 -120 93 -150 106 -261 108
-114 3 -130 12 -177 104 -40 77 -63 177 -63 282 0 83 -10 96 -35 46 l-16 -30
-30 45 c-68 102 -177 154 -354 171 -38 4 -74 3 -78 -1z"/>
<path d="M2939 7284 c-25 -30 -20 -48 6 -24 14 13 22 27 19 31 -7 12 -10 11
-25 -7z"/>
<path d="M5610 7286 c0 -48 -76 -158 -128 -186 -20 -10 -30 -19 -22 -20 26 0
78 38 108 79 30 41 60 127 48 138 -3 3 -6 -1 -6 -11z"/>
<path d="M7160 7270 c1 -26 40 -104 68 -133 29 -31 73 -57 94 -57 7 1 -3 10
-23 20 -46 24 -85 70 -115 135 -13 28 -24 43 -24 35z"/>
<path d="M9770 7246 c0 -2 8 -10 18 -17 15 -13 16 -12 3 4 -13 16 -21 21 -21
13z"/>
<path d="M2975 7230 c-3 -6 1 -7 9 -4 18 7 21 14 7 14 -6 0 -13 -4 -16 -10z"/>
<path d="M2839 7193 l-34 -38 38 34 c20 19 37 36 37 38 0 8 -8 0 -41 -34z"/>
<path d="M2884 7198 l-19 -23 23 19 c21 18 27 26 19 26 -2 0 -12 -10 -23 -22z"/>
<path d="M6195 6891 c-74 -12 164 -23 307 -15 117 7 126 9 78 15 -68 9 -331 8
-385 0z"/>
<path d="M6128 6839 c4 -4 61 -12 127 -18 119 -11 360 0 393 18 7 4 -109 7
-257 7 -149 0 -267 -3 -263 -7z"/>
<path d="M8692 6706 c-18 -41 -80 -80 -136 -87 l-51 -6 51 -2 c38 -1 60 5 84
22 33 21 77 83 68 93 -3 2 -10 -7 -16 -20z"/>
<path d="M4079 6695 c28 -59 117 -104 165 -85 16 7 11 9 -24 9 -49 1 -81 18
-124 66 -16 18 -23 22 -17 10z"/>
<path d="M5465 6570 c-162 -80 -231 -93 -459 -88 -174 5 -198 7 -264 31 -40
14 -70 22 -67 18 3 -5 40 -22 82 -37 77 -28 82 -29 288 -29 200 0 214 1 287
26 66 23 238 113 238 125 0 5 8 9 -105 -46z"/>
<path d="M3970 6593 c-90 -7 -252 -35 -304 -53 -89 -30 -160 -83 -220 -162
-21 -29 -36 -38 -57 -38 -47 0 -139 -37 -211 -85 -38 -25 -68 -47 -68 -50 0
-2 32 14 71 37 68 39 172 78 209 78 17 0 16 -5 -7 -72 -37 -104 -36 -202 1
-284 l28 -62 -25 -38 c-40 -64 -50 -109 -45 -203 2 -47 8 -94 14 -103 6 -11 8
10 6 65 -3 65 1 94 18 140 24 63 40 74 40 26 0 -37 28 -150 40 -163 5 -4 4 11
-2 35 -5 24 -8 90 -6 146 3 93 6 107 40 175 l37 73 -48 -53 c-49 -53 -49 -54
-62 -31 -6 13 -14 54 -17 92 -12 167 92 344 242 413 112 51 499 92 601 64 77
-22 127 -61 202 -161 79 -106 148 -174 198 -195 60 -25 143 -18 212 16 77 39
106 69 37 38 -68 -30 -121 -38 -176 -27 -63 14 -116 54 -186 141 -136 171
-190 213 -300 237 -49 10 -157 12 -262 4z"/>
<path d="M8522 6585 c-29 -8 -65 -21 -81 -30 -36 -18 -107 -92 -193 -200 -85
-108 -147 -145 -238 -145 -52 0 -78 6 -130 30 -61 29 -63 29 -35 6 59 -49 131
-78 192 -78 106 -1 173 47 295 210 70 93 124 139 187 160 68 23 328 8 511 -29
167 -34 290 -154 335 -326 19 -74 19 -143 -1 -193 -14 -35 -34 -54 -34 -32 0
13 -71 92 -82 92 -6 0 -4 -8 5 -18 9 -10 28 -44 44 -77 23 -52 27 -73 28 -155
0 -52 -3 -113 -8 -135 -14 -77 13 -9 32 77 l17 82 24 -49 c20 -40 24 -65 24
-135 l0 -85 14 45 c25 82 2 214 -48 278 -18 22 -18 24 8 70 22 38 27 62 30
137 3 76 0 101 -21 163 -23 65 -23 72 -8 72 36 0 129 -33 199 -72 39 -22 72
-37 72 -35 0 3 -29 23 -64 46 -70 46 -159 81 -205 81 -24 0 -37 9 -63 43 -62
82 -137 135 -228 161 -148 44 -484 68 -578 41z"/>
<path d="M7267 6575 c50 -35 173 -86 243 -101 116 -24 400 -15 495 15 68 22
100 39 91 48 -2 3 -17 -2 -33 -10 -74 -38 -166 -49 -360 -45 -175 4 -193 6
-267 32 -43 15 -100 39 -126 52 -54 27 -75 31 -43 9z"/>
<path d="M6208 6530 c-359 -50 -604 -173 -689 -346 -29 -58 -31 -71 -27 -131
6 -84 33 -140 90 -186 52 -42 134 -87 159 -87 11 0 19 -4 19 -10 0 -23 -79 -3
-142 37 -21 13 -38 20 -38 16 0 -5 7 -38 14 -74 33 -156 122 -277 248 -338 35
-17 115 -44 178 -61 142 -39 217 -78 298 -155 51 -50 62 -67 62 -93 0 -32 -2
-34 -179 -121 -192 -95 -287 -129 -451 -163 -90 -19 -139 -22 -345 -22 -339
-1 -432 21 -583 139 -91 71 -147 155 -221 331 -146 346 -218 437 -395 494 -72
24 -152 30 -205 16 -55 -14 -28 11 31 29 70 21 148 19 228 -5 104 -31 173 -72
300 -179 62 -53 63 -53 25 -12 -135 147 -252 217 -403 242 -88 15 -158 1 -228
-45 -49 -33 -92 -94 -85 -125 1 -8 -2 -10 -10 -5 -7 4 -10 3 -6 -2 3 -5 6 -32
8 -59 1 -28 11 -67 21 -88 10 -21 16 -43 12 -49 -5 -7 -3 -8 6 -3 10 6 12 4 7
-8 -3 -10 -3 -17 2 -17 9 0 57 -100 53 -112 -1 -4 2 -8 8 -8 5 0 10 -6 10 -13
0 -7 9 -31 20 -52 11 -22 18 -45 15 -52 -2 -7 -1 -13 4 -13 4 0 8 -6 9 -12 1
-7 5 -51 10 -98 l8 -85 8 53 c17 110 3 175 -71 332 -49 104 -85 191 -81 195 2
1 18 -2 35 -7 106 -28 198 -228 327 -717 84 -313 146 -450 273 -594 37 -43 94
-108 126 -145 129 -147 178 -240 203 -382 18 -107 29 -132 74 -175 119 -112
208 -311 260 -585 45 -232 86 -335 168 -417 152 -152 455 -193 804 -109 191
46 248 45 473 -11 194 -47 424 -42 579 14 138 50 212 114 270 238 33 69 40 94
91 335 48 227 117 387 210 489 82 90 95 115 111 204 8 45 21 104 30 131 23 69
118 204 224 321 202 221 263 340 354 690 122 467 203 653 309 703 33 16 43 17
45 6 5 -19 -78 -205 -88 -199 -5 3 -6 -3 -3 -13 2 -11 -2 -26 -11 -34 -8 -9
-13 -17 -11 -19 2 -3 -4 -28 -14 -57 -20 -59 -27 -198 -11 -222 7 -11 10 1 10
42 0 90 18 154 82 288 87 181 100 234 85 332 -6 37 -16 54 -49 83 -86 78 -185
99 -311 66 -126 -33 -209 -83 -319 -192 -54 -53 -98 -101 -98 -105 0 -5 39 29
87 76 140 135 310 209 455 197 59 -5 128 -28 128 -43 0 -3 -14 -3 -31 1 -78
17 -194 -2 -283 -47 -61 -31 -144 -115 -189 -193 -22 -38 -72 -142 -110 -230
-86 -201 -117 -254 -183 -320 -144 -144 -258 -182 -579 -192 -360 -11 -559 34
-870 196 -143 75 -150 79 -153 111 -3 29 4 40 60 94 77 75 153 116 278 151
183 50 226 71 308 149 45 42 117 169 107 186 -4 6 -2 10 3 10 9 0 21 39 37
113 l5 27 -51 -31 c-29 -18 -70 -34 -96 -37 -53 -6 -53 12 -1 22 48 9 155 82
184 126 85 129 66 259 -55 381 -99 100 -265 173 -497 220 -115 23 -372 33
-476 19z m369 -45 c110 -16 250 -48 261 -60 4 -4 -2 -5 -13 -1 -11 3 -78 15
-150 28 -234 39 -524 25 -636 -33 -21 -10 -66 -43 -99 -73 -49 -44 -83 -63
-181 -102 -71 -29 -136 -62 -159 -82 -48 -40 -49 -34 -11 34 58 100 166 173
336 227 78 24 255 63 325 70 86 9 228 6 327 -8z m14 -1579 c63 -30 167 -70
231 -88 101 -29 114 -36 98 -46 -11 -7 -30 -33 -43 -58 l-24 -46 -1 52 c-1 58
-9 72 -52 90 -26 11 -35 9 -77 -15 -44 -24 -39 -16 12 20 11 8 15 14 8 14 -14
1 -73 -47 -71 -57 2 -10 -35 -82 -42 -82 -8 0 -35 72 -31 85 1 6 -1 7 -5 2 -4
-4 -17 2 -29 13 -13 12 -35 25 -51 30 -21 6 -23 9 -9 9 11 1 35 -8 53 -19 17
-11 32 -15 32 -10 0 15 -62 50 -88 50 -37 0 -78 -27 -101 -65 -11 -20 -21 -42
-21 -48 0 -7 9 2 19 19 19 32 81 82 81 67 0 -5 -14 -19 -31 -32 -16 -12 -39
-36 -49 -53 l-18 -30 -28 42 c-18 27 -44 50 -69 61 -43 20 -34 26 12 8 15 -5
38 -22 50 -37 25 -32 42 -24 20 9 -22 31 -68 59 -97 59 -34 0 -75 -22 -75 -41
0 -8 -8 -27 -18 -42 -10 -15 -22 -39 -28 -55 -8 -19 -13 -23 -17 -12 -3 8 -17
31 -31 49 -14 19 -20 31 -13 27 12 -7 12 -4 2 14 -6 12 -25 26 -41 32 -29 10
-31 28 -3 28 8 0 67 25 132 55 115 54 119 55 208 55 90 0 93 -1 205 -54z
m-1686 -87 c10 -15 -8 -69 -22 -69 -13 0 -13 3 -3 15 8 9 8 15 2 15 -6 0 -12
-6 -15 -12 -4 -10 -7 -10 -18 0 -20 18 -42 15 -85 -14 -35 -24 -39 -25 -50 -9
-14 19 -2 53 44 128 l23 38 60 -42 c33 -24 62 -46 64 -50z m3108 49 c30 -40
51 -103 43 -125 -6 -14 -8 -14 -24 -1 -9 8 -32 20 -49 27 -29 12 -37 11 -67
-7 l-34 -20 -6 21 c-12 47 -5 62 46 100 29 20 55 37 60 37 4 0 18 -15 31 -32z
m-2088 -74 c-12 -18 -14 -29 -6 -33 7 -5 7 -18 0 -45 l-11 -39 -29 51 c-16 28
-36 52 -46 54 -10 2 9 11 42 20 33 8 62 16 64 17 2 0 -4 -11 -14 -25z m376
-21 c42 -35 65 -88 47 -108 -7 -8 -31 -39 -53 -69 -22 -31 -44 -55 -50 -55
-16 0 -85 105 -85 129 0 34 38 98 68 114 36 20 36 20 73 -11z m244 0 c15 -16
37 -47 47 -71 l19 -43 -24 -42 c-27 -46 -65 -93 -70 -86 -2 2 -29 35 -60 72
-31 38 -57 73 -57 79 0 26 36 82 64 99 41 25 48 24 81 -8z m240 21 c49 -19 57
-152 13 -217 l-25 -38 -67 57 c-36 31 -66 61 -66 66 0 30 58 100 105 126 24
14 20 13 40 6z m-746 -19 c16 -8 43 -37 62 -66 l33 -52 -30 -26 c-17 -14 -48
-41 -68 -58 -21 -18 -41 -33 -44 -33 -4 0 -20 20 -35 45 -26 40 -28 50 -22 98
14 100 42 125 104 92z m-284 -26 c-27 -17 -73 -40 -101 -51 l-52 -20 -22 22
c-25 25 -54 24 -129 -4 -42 -16 -46 -16 -120 9 -93 31 -105 31 -131 3 l-20
-22 0 30 0 29 223 2 c142 1 249 7 297 17 107 20 109 19 55 -15z m1330 9 c41
-7 161 -12 287 -13 l218 0 0 -30 0 -29 -16 22 c-20 29 -50 28 -137 -3 l-70
-26 -65 22 -66 22 -41 -22 c-41 -22 -43 -22 -86 -5 -24 10 -69 33 -99 52 -46
28 -50 33 -25 28 17 -3 62 -11 100 -18z m-2241 -4 c9 -3 13 -11 9 -17 -3 -5
-1 -7 5 -4 35 22 69 -62 63 -155 -1 -15 -5 -16 -27 -8 -43 17 -69 11 -99 -20
-16 -16 -32 -30 -36 -30 -4 0 -19 16 -34 35 -33 44 -28 77 20 131 29 33 36 37
45 24 10 -13 11 -13 7 0 -5 17 10 50 23 50 4 0 15 -3 24 -6z m1024 -61 c23
-38 28 -54 19 -61 -7 -5 -42 -30 -79 -55 -74 -52 -79 -51 -99 24 -18 68 -8 89
58 126 32 18 61 29 65 25 3 -4 20 -30 36 -59z m2138 12 c61 -62 68 -93 32
-141 -12 -16 -23 -31 -25 -33 -1 -2 -19 9 -38 24 -34 25 -39 26 -80 16 -24 -6
-47 -11 -51 -11 -8 0 3 83 18 128 9 30 57 72 82 72 4 0 32 -25 62 -55z m-1006
10 c32 -19 61 -42 64 -50 9 -24 -27 -119 -46 -123 -20 -4 -136 72 -145 94 -8
22 28 96 44 90 7 -3 13 1 13 9 0 21 5 19 70 -20z m-1660 -55 c33 -18 91 -14
140 9 57 26 64 26 79 -2 10 -19 9 -31 -4 -68 -58 -157 -67 -195 -67 -280 0
-47 5 -95 11 -107 6 -12 9 -22 5 -22 -20 0 -110 69 -149 113 -105 120 -177
333 -130 381 13 13 20 13 55 1 21 -8 48 -19 60 -25z m2205 17 c28 -43 6 -140
-57 -258 -35 -68 -139 -184 -188 -213 l-33 -19 7 29 c25 112 14 194 -45 337
-33 79 -36 109 -13 127 13 11 23 10 60 -8 58 -28 107 -28 180 3 73 30 70 30
89 2z m-2657 -143 c41 -3 44 -5 38 -20 -3 -8 -2 -12 4 -9 14 9 30 -39 30 -89
l0 -42 -36 4 c-26 3 -39 0 -49 -14 -7 -10 -11 -22 -9 -26 2 -3 -5 -10 -17 -13
-38 -12 -105 73 -93 120 8 32 106 121 114 103 3 -7 11 -13 18 -14z m3037 2 c8
-7 12 -16 10 -20 -3 -3 -2 -4 2 -1 13 10 73 -59 73 -85 0 -31 -54 -100 -79
-100 -10 0 -27 11 -39 24 -17 21 -27 24 -56 19 -34 -5 -36 -4 -36 21 0 61 22
118 54 137 37 23 53 24 71 5z m-740 -456 c34 -187 79 -293 235 -545 70 -113
74 -152 26 -257 -24 -55 -71 -116 -81 -107 -3 3 -11 37 -18 75 -10 55 -16 69
-30 68 -9 -1 -17 4 -17 12 0 18 1 19 -67 -15 -68 -34 -138 -46 -202 -34 -60
11 -66 33 -9 34 40 1 39 2 -22 13 -36 7 -80 20 -99 30 -59 31 -124 46 -201 44
-55 -1 -62 -2 -25 -5 101 -7 106 -14 20 -33 -44 -10 -109 -26 -145 -35 -125
-31 -315 -16 -512 41 -34 10 -17 23 35 27 28 2 14 3 -33 2 -62 -2 -97 -8 -130
-23 -71 -34 -130 -52 -166 -52 -18 0 -35 -3 -37 -7 -3 -5 15 -6 40 -4 46 3 78
-11 48 -23 -11 -4 -14 -2 -9 7 6 9 5 9 -8 0 -23 -20 -102 -27 -151 -14 -36 9
-99 34 -149 59 -5 2 -8 -2 -8 -10 1 -7 26 -29 56 -48 31 -19 63 -48 71 -65 9
-16 31 -52 51 -80 34 -48 36 -53 33 -130 -1 -44 -6 -81 -11 -83 -6 -2 -10 -9
-10 -15 0 -20 -33 -47 -59 -47 -43 0 -114 42 -136 80 -17 29 -20 53 -20 140 0
58 4 135 9 173 6 45 5 67 -2 67 -12 0 -15 -8 -32 -98 l-13 -63 -28 27 c-15 14
-42 54 -60 88 -61 112 -44 186 80 361 32 44 67 96 79 116 62 103 119 324 130
504 6 116 7 118 13 55 22 -224 -5 -367 -101 -529 -16 -28 -27 -51 -24 -51 25
0 171 104 258 184 62 57 120 81 178 72 92 -14 92 -11 -52 -229 -141 -213 -212
-292 -297 -333 -47 -23 -62 -26 -124 -22 -52 4 -68 3 -59 -6 6 -6 47 -11 98
-11 72 0 96 4 137 24 76 37 189 158 295 316 133 197 201 261 302 279 41 8 99
-12 134 -45 l22 -20 27 25 c72 67 175 52 273 -38 34 -32 95 -110 147 -188 103
-154 233 -291 310 -328 61 -30 165 -38 213 -18 32 12 30 13 -50 13 -73 0 -89
3 -133 29 -93 53 -168 140 -289 336 -33 52 -75 114 -94 138 -33 41 -33 44 -16
57 11 8 34 17 52 21 71 14 127 -13 256 -126 55 -48 144 -108 188 -128 4 -2
-12 34 -37 80 -76 143 -101 253 -92 397 4 47 7 127 8 176 2 77 3 68 10 -60 4
-82 15 -193 24 -245z m-2200 225 c7 -16 15 -47 19 -67 6 -33 4 -38 -13 -38
-11 0 -27 -14 -40 -35 -11 -19 -25 -35 -30 -35 -6 0 -22 20 -36 43 -33 57 -33
110 0 153 23 30 27 32 56 21 20 -8 37 -23 44 -42z m2899 13 c28 -56 15 -131
-29 -168 -14 -12 -20 -10 -41 13 -14 15 -32 27 -41 27 -12 0 -14 7 -9 32 18
90 27 108 59 122 38 16 41 15 61 -26z m-2826 -187 c15 -47 15 -71 2 -71 -5 0
-10 5 -10 11 0 5 -5 7 -10 4 -6 -4 -8 -11 -5 -16 4 -5 -3 -9 -14 -9 -14 0 -21
-6 -21 -19 0 -32 -21 -36 -43 -10 -14 18 -18 34 -14 62 8 58 31 87 71 87 30 0
34 -4 44 -39z m2739 9 c28 -30 32 -100 8 -120 -13 -11 -18 -10 -30 7 -8 11
-28 23 -45 26 -35 7 -38 27 -15 83 17 42 47 44 82 4z m-2675 -118 c4 -4 9 -18
13 -32 5 -20 -2 -33 -34 -64 -39 -38 -40 -39 -65 -22 -35 23 -35 73 -1 111 21
21 31 26 53 20 15 -3 30 -9 34 -13z m2591 5 c4 3 7 1 7 -5 0 -7 5 -11 12 -9 7
1 16 -14 22 -34 7 -30 5 -41 -10 -62 -25 -34 -35 -33 -67 3 -15 17 -32 30 -37
30 -14 0 -12 43 3 62 16 20 39 28 53 17 6 -5 14 -6 17 -2z m-2512 -116 c12
-12 19 -130 8 -137 -6 -3 -14 -17 -19 -30 -11 -29 -50 -32 -76 -7 -13 14 -15
29 -11 80 6 81 27 116 65 107 15 -4 30 -9 33 -13z m2448 -8 c23 -51 24 -115 2
-150 -25 -40 -37 -41 -75 -8 l-29 25 13 73 c15 88 15 87 49 87 20 0 31 -7 40
-27z m-2439 -197 c-22 -58 -3 -135 46 -184 26 -26 33 -39 28 -58 -3 -13 -10
-24 -14 -24 -21 0 -68 75 -79 126 -7 30 -22 67 -34 82 -50 61 -49 59 -19 54
18 -2 37 4 52 16 30 25 34 23 20 -12z m123 8 c31 -9 57 -20 57 -25 0 -4 -16
-35 -35 -68 -19 -32 -35 -66 -35 -74 0 -8 -7 -21 -16 -28 -41 -34 -110 118
-85 184 6 16 15 25 21 22 5 -3 10 -1 10 5 0 7 6 9 13 7 6 -3 38 -13 70 -23z
m2204 18 c35 -22 13 -150 -33 -193 -25 -24 -26 -24 -39 -4 -8 11 -19 25 -24
31 -11 13 -61 111 -62 120 0 6 113 50 136 52 6 1 16 -2 22 -6z m60 -33 c8 -8
17 -7 34 2 24 12 24 12 5 -9 -10 -12 -23 -19 -29 -15 -5 3 -8 2 -4 -3 3 -5 -1
-20 -9 -34 l-15 -25 6 28 c3 15 1 36 -5 47 -11 21 -1 27 17 9z m-27 -172 c0
-5 -4 -5 -10 -2 -5 3 -8 0 -5 -7 5 -15 -43 -74 -52 -64 -4 3 4 18 18 33 17 20
18 23 3 10 -38 -32 -42 -17 -5 21 32 33 50 36 51 9z m-1577 -154 c3 -5 -6 -9
-20 -10 -19 -1 -22 1 -12 8 17 11 26 11 32 2z m122 -45 c-6 -16 86 -51 133
-51 25 0 29 -3 17 -9 -20 -12 -62 -3 -134 29 -55 25 -56 29 -14 42 1 1 0 -5
-2 -11z m692 -4 c-3 -3 -12 -4 -19 -1 -8 3 -5 6 6 6 11 1 17 -2 13 -5z m88 -4
c3 -5 16 -10 27 -10 12 0 19 -3 16 -6 -4 -3 -27 -2 -53 2 -32 4 -43 9 -34 15
19 12 36 11 44 -1z m-208 -6 c-3 -3 -12 -4 -19 -1 -8 3 -5 6 6 6 11 1 17 -2
13 -5z m-820 -10 c-3 -3 -12 -4 -19 -1 -8 3 -5 6 6 6 11 1 17 -2 13 -5z m1430
-12 c6 -4 11 -18 11 -32 1 -14 6 -67 13 -118 16 -117 4 -170 -48 -224 -27 -28
-48 -39 -82 -45 -55 -8 -71 -6 -93 14 -23 20 -29 68 -18 141 7 51 19 79 62
144 63 96 121 141 155 120z m-928 -6 c-2 -2 -17 -6 -34 -10 -22 -5 -26 -4 -15
4 14 9 59 15 49 6z m108 -2 c-3 -3 -12 -4 -19 -1 -8 3 -5 6 6 6 11 1 17 -2 13
-5z m88 -9 c-16 -7 -46 -15 -65 -19 -24 -3 -17 1 20 13 64 22 89 25 45 6z
m-258 -21 c-3 -3 -12 -4 -19 -1 -8 3 -5 6 6 6 11 1 17 -2 13 -5z m133 -4 c0
-5 -7 -10 -16 -10 -8 0 -12 5 -9 10 3 6 10 10 16 10 5 0 9 -4 9 -10z m-664
-210 c38 -22 74 -40 82 -40 17 0 34 -48 25 -74 -4 -11 -6 -25 -4 -30 1 -5 -13
-24 -30 -43 -24 -24 -42 -33 -65 -33 -40 0 -80 31 -87 69 -6 27 2 191 8 191 2
0 34 -18 71 -40z m1286 -47 c6 -109 -6 -141 -59 -165 -49 -22 -69 -16 -102 31
-28 39 -30 129 -3 137 9 2 46 20 82 38 36 19 68 35 71 35 4 1 9 -34 11 -76z
m-1059 -39 c49 -6 56 -9 60 -33 12 -63 -49 -114 -103 -86 -45 23 -62 55 -54
103 6 36 9 40 24 32 10 -5 43 -12 73 -16z m853 -29 c-1 -27 -10 -53 -22 -66
-62 -69 -152 -27 -137 64 5 34 6 34 47 30 32 -4 87 4 113 16 1 1 1 -19 -1 -44z
m-193 18 c16 -4 18 -11 12 -41 -8 -47 -31 -82 -53 -82 -29 0 -81 38 -88 65 -3
14 -3 37 0 51 7 25 9 26 59 19 29 -3 60 -9 70 -12z m-433 -24 c0 -22 -10 -41
-34 -65 -37 -37 -53 -41 -80 -21 -18 13 -39 101 -28 112 3 3 36 5 74 5 l68 0
0 -31z m126 14 c45 -60 -38 -140 -90 -87 -22 21 -21 80 2 93 27 16 73 13 88
-6z m132 11 c20 -6 23 -12 20 -52 -4 -54 -23 -71 -65 -56 -32 11 -49 49 -39
88 7 27 33 33 84 20z m-791 -102 c15 -33 61 -62 98 -62 29 0 85 48 85 74 0 25
14 19 33 -13 20 -34 67 -56 102 -47 14 4 34 21 45 39 11 17 20 27 20 21 0 -19
35 -52 62 -59 20 -5 33 0 60 24 l35 30 21 -21 c29 -29 81 -27 108 5 l21 25 24
-23 c38 -37 65 -40 94 -11 l25 25 27 -25 c44 -40 72 -42 104 -6 27 30 29 30
41 13 37 -52 100 -50 148 5 16 19 30 29 30 23 0 -7 11 -27 26 -46 19 -25 32
-33 57 -33 39 0 94 32 108 64 l11 23 24 -23 c27 -28 68 -31 119 -10 38 16 45
11 18 -11 -44 -34 -142 -76 -222 -93 -110 -25 -197 -25 -357 0 -170 26 -375
26 -549 0 -158 -24 -262 -25 -362 -4 -108 22 -174 49 -219 89 l-39 35 37 -15
c55 -22 95 -19 121 9 29 31 30 31 44 -2z m869 -178 c49 -9 133 -24 186 -33 53
-9 101 -20 105 -24 11 -11 -128 1 -272 24 -152 24 -247 24 -404 0 -150 -23
-274 -33 -266 -22 2 5 28 12 57 15 29 4 109 18 178 31 150 28 292 31 416 9z"/>
<path d="M6680 3723 c0 -15 186 -193 201 -193 7 0 -22 36 -66 81 -83 84 -135
127 -135 112z"/>
<path d="M5972 3625 c-53 -52 -91 -95 -83 -95 8 0 57 43 110 95 53 52 90 95
83 95 -7 0 -57 -43 -110 -95z"/>
<path d="M7457 3413 c-4 -3 -7 -22 -7 -41 0 -21 -13 -58 -31 -90 -16 -30 -26
-51 -20 -48 20 12 60 98 67 141 6 44 4 52 -9 38z"/>
<path d="M6358 3343 c23 -2 59 -2 80 0 20 2 1 4 -43 4 -44 0 -61 -2 -37 -4z"/>
<path d="M5553 3333 c9 -2 25 -2 35 0 9 3 1 5 -18 5 -19 0 -27 -2 -17 -5z"/>
<path d="M7208 3333 c7 -3 16 -2 19 1 4 3 -2 6 -13 5 -11 0 -14 -3 -6 -6z"/>
<path d="M4130 6491 c141 -13 197 -58 297 -236 73 -131 101 -165 164 -200 65
-35 146 -39 227 -11 65 22 62 31 -4 16 -54 -13 -138 -6 -189 15 -57 24 -92 63
-166 181 -116 188 -183 237 -324 240 l-80 2 75 -7z"/>
<path d="M8512 6469 c-71 -35 -115 -84 -192 -213 -29 -49 -69 -104 -88 -124
-64 -63 -169 -92 -267 -73 -27 5 -51 8 -53 6 -2 -2 21 -11 50 -21 109 -37 218
-14 291 61 21 21 65 87 98 146 108 189 157 229 294 240 l80 6 -76 1 c-66 2
-83 -2 -137 -29z"/>
<path d="M10182 6388 c8 -13 25 -43 37 -66 12 -24 25 -42 28 -39 6 6 -65 127
-74 127 -3 0 1 -10 9 -22z"/>
<path d="M9765 6390 c3 -5 11 -10 16 -10 6 0 7 5 4 10 -3 6 -11 10 -16 10 -6
0 -7 -4 -4 -10z"/>
<path d="M5156 6239 c-156 -95 -280 -228 -358 -384 -45 -89 -40 -102 6 -17 85
156 195 277 340 377 86 59 92 73 12 24z"/>
<path d="M7560 6267 c0 -3 30 -24 68 -48 78 -51 223 -191 273 -264 19 -27 53
-86 77 -130 24 -44 40 -69 36 -55 -9 36 -71 152 -110 207 -43 61 -133 152
-198 201 -53 41 -146 97 -146 89z"/>
<path d="M3831 6045 c-134 -38 -236 -129 -271 -242 -35 -113 -26 -257 26 -401
27 -75 43 -93 25 -27 -19 68 -34 258 -26 320 l7 60 17 -60 c21 -75 53 -139 97
-195 19 -23 34 -40 34 -37 0 3 -18 43 -40 89 -36 75 -40 90 -40 162 0 89 28
199 59 233 49 52 223 89 376 80 90 -5 90 -5 45 9 -69 23 -244 27 -309 9z"/>
<path d="M8682 6049 c-100 -17 -81 -24 61 -25 126 -1 150 -4 215 -27 91 -32
106 -45 134 -116 17 -43 22 -78 22 -151 1 -89 -2 -101 -36 -180 l-37 -85 30
35 c43 50 90 151 97 206 4 35 7 42 14 30 16 -28 9 -225 -11 -321 -10 -49 -17
-91 -16 -93 9 -11 66 169 76 241 50 344 -180 547 -549 486z"/>
<path d="M2336 6013 c45 -188 223 -505 453 -808 91 -120 104 -145 76 -145 -20
0 -19 -6 9 -55 31 -52 93 -104 199 -165 85 -48 100 -70 57 -80 -16 -4 8 -9 65
-14 50 -4 130 -14 179 -22 48 -8 90 -13 93 -11 2 3 -67 28 -154 57 -215 71
-257 92 -331 167 -66 68 -75 98 -16 58 34 -23 93 -44 182 -63 23 -6 42 -9 42
-7 0 2 -30 23 -67 48 -200 132 -321 265 -516 563 -148 227 -257 428 -257 474
0 10 -5 22 -10 25 -7 4 -8 -3 -4 -22z"/>
<path d="M2360 6006 c0 -8 141 -117 196 -150 32 -21 50 -30 39 -21 -56 44
-235 174 -235 171z"/>
<path d="M10075 5854 l-40 -14 68 6 c37 3 67 3 67 1 0 -3 -25 -20 -55 -37 -78
-45 -68 -47 17 -4 51 26 68 38 57 44 -29 16 -75 18 -114 4z"/>
<path d="M2658 5843 c7 -3 16 -2 19 1 4 3 -2 6 -13 5 -11 0 -14 -3 -6 -6z"/>
<path d="M10296 5750 c-68 -119 -178 -293 -259 -408 -89 -125 -203 -239 -328
-328 -70 -50 -105 -80 -95 -82 22 -5 148 34 192 58 65 37 61 17 -12 -55 -68
-67 -145 -105 -346 -171 -81 -26 -146 -50 -144 -51 2 -2 46 3 97 13 91 16 366
27 374 15 5 -8 -71 -99 -112 -135 -19 -16 -59 -39 -91 -52 l-57 -24 75 1 c41
0 79 0 85 0 18 -2 -109 -122 -192 -182 -137 -100 -232 -134 -428 -156 l-60 -6
80 -14 c135 -23 246 -19 331 14 8 3 14 1 14 -4 0 -17 -191 -135 -288 -178 -79
-34 -200 -72 -387 -119 -11 -3 41 -4 115 -2 106 3 150 8 203 25 38 12 71 20
75 17 7 -8 -170 -91 -271 -127 l-82 -29 78 5 c43 3 89 10 103 15 45 17 25 -6
-28 -33 -95 -47 -210 -83 -403 -126 -104 -23 -199 -47 -210 -52 -33 -15 191
-2 269 16 37 9 70 14 73 11 17 -17 -199 -122 -362 -176 -118 -40 -134 -49 -68
-43 117 11 305 66 346 101 29 26 28 8 -2 -34 -68 -91 -230 -179 -406 -219 -60
-14 -119 -25 -130 -25 -16 0 -17 -2 -5 -10 14 -9 145 -4 162 6 4 3 8 -2 8 -10
0 -26 -62 -64 -150 -92 -102 -32 -126 -49 -58 -40 27 3 59 8 73 12 14 3 25 2
25 -3 0 -9 -71 -82 -120 -123 l-25 -21 35 17 c19 9 50 28 68 42 17 13 32 20
32 14 0 -20 -85 -85 -154 -118 -84 -39 -196 -69 -196 -51 0 15 44 227 61 292
6 28 23 74 36 104 29 67 23 77 -10 19 -36 -61 -61 -145 -97 -319 -34 -163 -53
-226 -45 -149 2 25 7 86 11 135 9 126 28 229 58 309 31 82 28 99 -4 24 -45
-103 -60 -181 -75 -374 -15 -208 -27 -254 -101 -395 -40 -76 -56 -88 -24 -18
39 87 19 72 -25 -18 -25 -51 -50 -93 -56 -93 -6 0 -6 7 1 19 20 38 10 36 -14
-3 -36 -61 -174 -193 -255 -247 -145 -95 -323 -149 -492 -149 -48 0 -142 9
-210 21 -121 21 -124 21 -213 2 -126 -25 -325 -25 -426 1 -96 24 -219 78 -295
129 -75 51 -226 201 -253 253 -12 21 -21 35 -22 31 0 -5 5 -17 10 -28 7 -12 7
-19 1 -19 -6 0 -31 42 -56 92 -25 51 -43 80 -39 63 4 -16 16 -48 27 -70 15
-31 16 -37 4 -27 -23 20 -106 198 -117 251 -5 25 -14 115 -20 200 -6 85 -17
185 -25 223 -16 75 -71 224 -86 233 -5 4 0 -18 12 -47 48 -118 72 -251 83
-448 6 -112 -8 -103 -25 16 -26 187 -107 427 -157 466 -15 11 -15 11 -5 -2 37
-48 84 -206 131 -442 11 -57 12 -57 -84 -27 -119 37 -254 117 -254 152 0 5 8
3 18 -5 9 -9 37 -26 62 -38 l45 -22 -45 41 c-25 22 -48 40 -51 41 -4 0 -19 16
-34 36 l-28 37 34 -6 c94 -17 119 -19 119 -9 0 6 -15 14 -32 17 -86 19 -159
48 -188 75 -17 16 -29 33 -26 38 3 5 33 5 68 0 35 -5 86 -5 113 -1 l50 7 -75
8 c-149 16 -331 83 -439 162 -56 42 -127 114 -119 121 3 3 28 -6 55 -21 28
-14 66 -29 84 -34 19 -5 68 -18 109 -28 88 -23 190 -37 175 -24 -5 5 -62 26
-125 47 -132 44 -229 86 -315 139 -68 41 -68 41 40 21 84 -15 294 -32 285 -22
-3 3 -95 26 -205 52 -227 53 -317 81 -423 132 -75 36 -90 53 -30 35 18 -6 67
-13 108 -16 l75 -6 -80 29 c-86 30 -141 54 -229 97 -60 29 -78 52 -24 29 64
-26 187 -45 290 -44 l103 1 -65 14 c-200 43 -402 123 -535 213 -114 76 -123
91 -40 65 60 -19 188 -19 295 -1 l75 13 -80 8 c-164 17 -270 57 -407 152 -57
39 -198 170 -198 183 0 3 35 5 77 4 77 -2 78 -2 41 12 -21 7 -58 28 -82 44
-47 33 -136 130 -136 150 0 6 -7 11 -15 11 -8 0 -15 -2 -15 -5 0 -12 44 -91
66 -121 25 -33 31 -54 14 -54 -14 0 15 -55 58 -110 53 -68 145 -160 159 -160
20 0 61 -74 65 -116 3 -35 10 -43 91 -104 48 -36 112 -79 142 -95 39 -22 53
-35 50 -46 -10 -29 130 -149 276 -237 169 -101 181 -111 231 -185 22 -34 52
-74 65 -89 16 -17 23 -33 19 -45 -5 -15 2 -23 32 -36 21 -9 73 -37 116 -61 44
-25 92 -48 107 -51 35 -8 58 -43 38 -57 -11 -8 -11 -9 2 -5 23 7 92 -69 116
-129 43 -106 115 -183 210 -224 17 -8 29 -18 27 -22 -3 -4 2 -5 12 -1 12 4 42
-20 110 -90 84 -86 100 -109 148 -209 58 -121 114 -190 197 -244 24 -16 84
-65 132 -110 97 -90 218 -164 332 -203 64 -23 85 -25 260 -25 117 -1 223 4
276 13 67 11 93 11 121 2 55 -18 301 -30 407 -19 174 17 330 97 496 253 28 25
73 62 102 81 85 58 144 131 207 258 48 97 70 128 139 199 61 63 99 92 150 116
77 37 166 119 186 171 31 82 52 117 90 155 23 21 41 45 41 51 0 15 12 24 41
29 11 2 60 26 107 52 95 53 211 159 252 232 17 29 37 48 60 58 19 8 49 20 65
28 39 18 256 72 320 80 44 5 47 4 29 -7 -22 -14 -204 -168 -204 -174 0 -5 53
13 128 44 39 16 72 26 72 21 0 -5 -3 -9 -7 -9 -9 0 -78 -62 -181 -163 -38 -36
-73 -63 -77 -59 -5 4 -5 2 -2 -4 3 -6 -8 -27 -24 -47 -34 -41 -30 -47 8 -17
14 11 33 20 42 21 13 0 13 1 -2 7 -14 6 6 28 100 114 65 59 138 127 163 152
l44 46 -74 -25 c-40 -14 -78 -25 -84 -25 -6 0 14 21 44 48 30 26 68 60 85 75
l30 29 -150 -7 c-86 -3 -146 -2 -140 3 6 5 40 30 78 56 37 26 67 50 67 54 0 5
32 43 70 86 39 43 70 82 70 87 0 4 30 25 68 45 109 61 203 129 267 195 33 34
52 59 42 55 -42 -14 -95 -18 -102 -7 -10 17 9 36 107 103 107 73 143 115 158
182 7 28 23 70 36 93 14 23 28 62 33 86 l8 43 -64 -10 c-44 -7 -67 -6 -74 1
-16 16 -6 28 65 67 120 67 197 166 199 255 0 38 7 54 38 91 57 69 198 297 302
491 46 85 89 179 83 179 -2 0 -29 -45 -60 -100z"/>
<path d="M5555 5741 c4 -81 47 -170 110 -231 l47 -45 -50 67 c-51 68 -87 148
-103 228 -8 41 -8 40 -4 -19z"/>
<path d="M7213 5745 c-18 -85 -64 -177 -120 -236 -26 -29 -39 -47 -27 -41 29
15 87 81 117 133 31 53 50 123 45 170 -3 30 -4 27 -15 -26z"/>
<path d="M4961 5673 c-12 -14 -24 -37 -27 -50 -7 -27 8 -49 25 -38 15 9 51 80
51 100 0 24 -26 18 -49 -12z"/>
<path d="M7765 5673 c10 -40 44 -93 61 -93 21 0 17 47 -7 86 -27 44 -65 48
-54 7z"/>
<path d="M5170 5621 c0 -27 19 -36 37 -18 18 18 9 37 -18 37 -12 0 -19 -7 -19
-19z"/>
<path d="M7560 5621 c0 -24 13 -33 35 -25 23 9 14 38 -13 42 -16 3 -22 -2 -22
-17z"/>
<path d="M5170 5444 c-11 -12 -10 -18 3 -32 16 -15 18 -15 34 0 13 14 14 20 3
32 -7 9 -16 16 -20 16 -4 0 -13 -7 -20 -16z"/>
<path d="M4986 5443 c-11 -12 -6 -37 19 -90 22 -49 46 -66 60 -43 6 10 -48
124 -63 134 -5 3 -12 3 -16 -1z"/>
<path d="M7560 5431 c0 -24 13 -33 34 -25 27 10 20 44 -9 44 -18 0 -25 -5 -25
-19z"/>
<path d="M7740 5391 c-34 -69 -38 -94 -13 -89 21 4 60 72 65 112 5 51 -20 40
-52 -23z"/>
<path d="M5400 5332 c-41 -20 -61 -62 -40 -86 20 -25 77 -20 105 9 30 29 31
49 5 75 -24 24 -26 24 -70 2z"/>
<path d="M7312 5334 c-48 -34 -5 -104 64 -104 58 0 67 48 17 91 -29 26 -57 30
-81 13z"/>
<path d="M2901 5240 c15 -31 129 -144 161 -160 13 -6 -3 12 -34 40 -32 28 -76
72 -99 98 -23 27 -35 36 -28 22z"/>
<path d="M5632 5244 c-22 -10 -35 -44 -21 -60 27 -32 95 1 87 43 -3 18 -40 27
-66 17z"/>
<path d="M7080 5226 c0 -49 68 -78 89 -37 13 24 -24 61 -62 61 -22 0 -27 -5
-27 -24z"/>
<path d="M9785 5161 c-78 -84 -73 -87 13 -6 46 43 89 96 75 94 -4 -1 -44 -40
-88 -88z"/>
<path d="M5190 5205 c-29 -35 31 -97 75 -77 31 14 32 45 3 72 -25 23 -60 26
-78 5z"/>
<path d="M7512 5204 c-25 -17 -29 -56 -8 -73 21 -18 65 -2 80 28 27 51 -21 81
-72 45z"/>
<path d="M5461 5128 c-33 -18 -37 -36 -9 -43 37 -9 83 8 83 31 0 24 -39 30
-74 12z"/>
<path d="M7237 5133 c-17 -16 -4 -33 32 -44 43 -13 71 -7 71 14 0 25 -84 50
-103 30z"/>
<path d="M3968 5065 c-4 -38 -23 -124 -43 -190 -39 -128 -56 -285 -37 -335 7
-19 10 -5 10 61 1 62 11 120 33 205 47 181 50 196 47 265 l-3 64 -7 -70z"/>
<path d="M8791 5090 c0 -53 15 -131 58 -293 21 -79 31 -144 32 -195 1 -72 2
-74 11 -37 14 60 2 169 -31 278 -17 53 -35 125 -42 159 -6 35 -15 79 -19 98
l-8 35 -1 -45z"/>
<path d="M8660 3430 c-9 -6 -10 -10 -3 -10 6 0 15 5 18 10 8 12 4 12 -15 0z"/>
<path d="M4080 3368 c0 -9 12 -49 26 -90 14 -40 28 -83 31 -95 8 -33 114 -145
175 -186 98 -64 108 -55 25 23 -109 102 -219 262 -201 293 4 7 3 8 -1 4 -5 -4
-19 9 -32 30 -13 21 -23 31 -23 21z"/>
<path d="M4150 3327 c62 -66 186 -151 196 -135 4 7 4 10 0 7 -10 -10 -87 62
-79 74 3 6 1 7 -5 3 -7 -4 -20 7 -33 28 -18 31 -23 34 -39 23 -16 -10 -24 -7
-52 18 -18 16 -13 8 12 -18z"/>
<path d="M9050 3298 c-80 -98 -296 -291 -422 -377 -55 -37 -63 -49 -17 -25 48
25 199 81 275 103 128 36 229 70 214 70 -13 1 -221 -46 -290 -65 -17 -5 20 39
121 142 136 139 181 194 162 194 -5 0 -24 -19 -43 -42z"/>
<path d="M8965 3310 c-27 -10 -43 -18 -35 -18 8 0 38 8 65 18 28 10 43 18 35
18 -8 0 -37 -8 -65 -18z"/>
<path d="M4425 3169 c-4 -6 -5 -12 -2 -15 2 -3 7 2 10 11 7 17 1 20 -8 4z"/>
<path d="M4447 3158 c-6 -17 29 -22 39 -6 5 7 2 8 -6 3 -7 -4 -15 -2 -20 5 -5
9 -8 8 -13 -2z"/>
<path d="M4141 3114 c-1 -17 6 -55 15 -85 12 -39 17 -96 18 -201 1 -135 -4
-170 -17 -135 -3 6 -6 8 -6 2 -1 -5 13 -30 30 -55 17 -25 29 -38 26 -28 -14
41 -28 180 -25 242 l3 69 35 -54 c19 -30 49 -83 66 -119 36 -74 86 -131 159
-179 l50 -34 -64 64 c-55 55 -111 127 -111 144 0 4 19 -6 43 -20 46 -28 131
-69 169 -80 12 -4 -18 20 -68 54 -177 117 -245 202 -300 376 -17 54 -23 63
-23 39z"/>
<path d="M8955 2948 c-144 -106 -325 -272 -325 -298 0 -14 3 -13 65 16 60 29
69 41 16 23 -18 -6 -34 -9 -37 -7 -7 8 120 124 231 212 55 44 107 85 115 93
29 27 3 11 -65 -39z"/>
<path d="M4640 2951 c0 -6 4 -13 10 -16 6 -3 7 1 4 9 -7 18 -14 21 -14 7z"/>
<path d="M4111 2814 c-1 -12 6 -37 14 -55 18 -43 19 -27 1 31 -8 25 -15 36
-15 24z"/>
</g>
</svg>
